<svg fill="#003709" height="48" viewBox="0 0 16 16" width="48" xmlns="http://www.w3.org/2000/svg">
    <path d="M12.2626,0c-0.684265,0.338013 -1.55914,0.646301 -2.50238,0.646301c-0.208008,0 -0.411621,-0.0146484 -0.610352,-0.0449219c-0.402832,1.23193 -0.867188,2.41309 -1.85254,2.71973l-0.297363,0.0927734l-0.297363,-0.0927735c-0.985352,-0.306641 -1.44971,-1.48779 -1.85254,-2.71973c-0.19873,0.0302735 -0.402344,0.044922 -0.609863,0.044922c-0.200623,6.1e-05 -0.395691,-0.0221558 -0.589355,-0.0472412c-1.33807,1.16852 -2.15088,2.84412 -2.15088,4.76746c0,0.842468 0.118896,1.62598 0.334961,2.34546c-0.5271,-0.891846 -0.834961,-2.0033 -0.834961,-3.34546c0,-1.64282 0.66156,-3.00739 1.73114,-3.96698c-0.362,-0.112671 -0.695557,-0.252014 -0.993896,-0.399414c-1.08734,1.13782 -1.73724,2.6521 -1.73724,4.36639c0,4.18701 2.81299,7 7,7c4.18701,0 7,-2.81299 7,-7c0,-1.71436 -0.649902,-3.2287 -1.73737,-4.36652Z" transform="translate(1, 4.63348)"/>
    <path d="M0,3c0,0 2.4375,2 4.5,1c0.34375,1 0.791687,2.77924 1.5,3c0.708313,-0.220764 1.15625,-2 1.5,-3c2.0625,1 4.5,-1 4.5,-1c0,0 -1.5,-1.5 -3.5,-1c1.03125,-0.666687 1,-2 1,-2c0,0 -3.5,0.583313 -3.5,2c0,-1.41669 -3.5,-2 -3.5,-2c0,0 -0.03125,1.33331 1,2c-2,-0.5 -3.5,1 -3.5,1Z" transform="translate(2, 0)"/>
</svg>
